Coordinates
version=1
nRows=4
nColumns=107
inDegrees=yes

Units are S.I. units (second, meters, Newtons, ...)
If the header above contains a line with 'inDegrees', this indicates whether rotational values are in degrees (yes) or radians (no).

endheader
time	sternoclavicular_r2	sternoclavicular_r3	unrotscap_r3	unrotscap_r2	acromioclavicular_r2	acromioclavicular_r3	acromioclavicular_r1	unrothum_r1	unrothum_r3	unrothum_r2	elv_angle	shoulder_elv	shoulder1_r2	shoulder_rot	elbow_flexion	pro_sup	deviation	flexion	proximal_distal_r1	proximal_distal_r3	cmc_flexion	cmc_abduction	mp_flexion	ip_flexion	mcp2_flexion	mcp2_abduction	pm2_flexion	md2_flexion	mcp3_flexion	mcp3_abduction	pm3_flexion	md3_flexion	mcp4_flexion	mcp4_abduction	pm4_flexion	md4_flexion	mcp5_flexion	mcp5_abduction	pm5_flexion	md5_flexion	bicpt_tx	bicpt_ty	bicpt_tz	bicpt2_tx	bicpt2_ty	bicpt2_tz	ptpt_tx	ptpt_ty	ptpt_tz	FCUpt_tx	FCUpt_ty	FCUpt_tz	EDCpt_tx	EDCpt_ty	EDCpt_tz	APLpt_tx	APLpt_ty	APLpt_tz	FPLpt_tx	FPLpt_ty	FPLpt_tz	FPLpt2_tx	FPLpt2_ty	FPLpt2_tz	PEC1pt2_tx	PEC1pt2_ty	PEC1pt2_tz	PEC1pt3_tx	PEC1pt3_ty	PEC1pt3_tz	PEC2pt2_tx	PEC2pt2_ty	PEC2pt2_tz	PEC2pt3_tx	PEC2pt3_ty	PEC2pt3_tz	PEC3pt2_tx	PEC3pt2_ty	PEC3pt2_tz	PEC3pt3_tx	PEC3pt3_ty	PEC3pt3_tz	DELT2pt2a_tx	DELT2pt2a_ty	DELT2pt2a_tz	DELT2pt2_tx	DELT2pt2_ty	DELT2pt2_tz	LAT1pt2_tx	LAT1pt2_ty	LAT1pt2_tz	LAT1pt3_tx	LAT1pt3_ty	LAT1pt3_tz	LAT2pt2_tx	LAT2pt2_ty	LAT2pt2_tz	LAT2pt3_tx	LAT2pt3_ty	LAT2pt3_tz	LAT3pt2_tx	LAT3pt2_ty	LAT3pt2_tz	LAT3pt3_tx	LAT3pt3_ty	LAT3pt3_tz
      0.83333333	     -0.31859842	      0.13494325	     -0.13494325	      0.31859842	     -0.06450970	      0.52134469	      0.23434085	     -0.23434085	     -0.52134469	      0.06450970	    100.02011644	     75.43100750	     -1.74568035	    -30.06523795	     29.92415159	     68.13294900	      0.31328869	     -0.74520795	      0.34484065	     -0.37260398	     34.00369106	    -12.87961510	    -17.39856376	     -1.39408795	     87.53114865	     13.37539313	     80.32600592	     70.01596464	     88.51180500	      3.30842479	     82.84446877	     54.44108590	     88.32568486	    -12.91813937	     91.74485521	     41.24758856	     87.51421871	    -14.00333806	     97.14283933	      5.42238096	      0.00088980	     -0.03102977	     -0.00485245	      0.01572166	     -0.01832904	     -0.00391196	      0.00251574	     -0.06815523	     -0.00553847	      0.01073476	     -0.18279747	     -0.00028812	     -0.00817593	      0.00264680	     -0.00027001	      0.00029739	      0.00011895	      0.00059477	      0.00038065	      0.00114196	      0.00064235	     -0.00001235	     -0.00020775	     -0.00024930	      0.00247246	      0.00867457	      0.00603449	     -0.00808789	      0.01952827	     -0.01852252	      0.00247246	      0.00867457	      0.00603449	      0.00054478	      0.01810346	     -0.00951270	      0.00391998	      0.00482382	      0.01589889	      0.00000000	      0.00760836	      0.00000000	     -0.00708214	     -0.03272870	     -0.00627246	      0.01890705	     -0.00075932	     -0.00753048	     -0.00088003	      0.01475097	     -0.00603449	      0.00243056	      0.02128832	     -0.01760058	     -0.00590877	      0.01278138	     -0.00540589	     -0.01232041	      0.02698756	     -0.03021433	     -0.02313220	      0.01429000	     -0.00724976	     -0.01533765	      0.03117818	     -0.03775744
      0.86666667	     -0.31849237	      0.13489834	     -0.13489834	      0.31849237	     -0.06448823	      0.52117116	      0.23426285	     -0.23426285	     -0.52117116	      0.06448823	    100.01696554	     75.40590009	     -1.74562536	    -30.11372324	     30.00150343	     68.70602429	      0.31045407	     -0.74699185	      0.34244081	     -0.37349593	     33.44218538	    -12.71576394	    -18.26173578	     -1.76865198	     83.43719115	     13.37510214	     78.80103061	     69.12628538	     85.20316457	      3.73863080	     81.80879449	     53.82991887	     85.66989457	    -12.80873354	     89.73408936	     41.00987919	     84.77923521	    -13.99034125	     95.96775914	      5.41081353	      0.00089236	     -0.03103863	     -0.00485387	      0.01568544	     -0.01835006	     -0.00382793	      0.00247340	     -0.06818261	     -0.00558464	      0.01079749	     -0.18278092	     -0.00027991	     -0.00824470	      0.00267514	     -0.00028296	      0.00029698	      0.00011879	      0.00059396	      0.00038014	      0.00114041	      0.00064148	     -0.00001203	     -0.00021475	     -0.00025769	      0.00247164	      0.00867169	      0.00603248	     -0.00808520	      0.01952177	     -0.01851635	      0.00247164	      0.00867169	      0.00603248	      0.00054460	      0.01809743	     -0.00950953	      0.00391902	      0.00482221	      0.01589652	      0.00000000	      0.00760326	      0.00000000	     -0.00707978	     -0.03271781	     -0.00626823	      0.01892835	     -0.00076098	     -0.00755427	     -0.00087974	      0.01474606	     -0.00603248	      0.00242975	      0.02128124	     -0.01759472	     -0.00590680	      0.01277712	     -0.00540409	     -0.01231631	      0.02697858	     -0.03020428	     -0.02312450	      0.01428524	     -0.00724735	     -0.01533255	      0.03116780	     -0.03774487
      0.90000000	     -0.31617516	      0.13391687	     -0.13391687	      0.31617516	     -0.06401904	      0.51737934	      0.23255845	     -0.23255845	     -0.51737934	      0.06401904	    100.45866884	     74.85727843	     -1.75333453	    -32.63501287	     30.59970659	     72.07373973	      0.30576691	     -0.70734505	      0.33844393	     -0.35367252	     32.44582386	    -12.63824387	    -18.71144996	     -1.66602593	     77.43028142	     13.40976431	     77.26809240	     65.58869737	     80.28113154	      4.54627243	     80.75147305	     51.34454434	     81.12610094	    -12.56394422	     87.08523110	     41.48807244	     79.87716701	    -13.97385289	     94.38750146	      5.43789260	      0.00091214	     -0.03110719	     -0.00486492	      0.01545771	     -0.01851256	     -0.00332499	      0.00222456	     -0.06834352	     -0.00585593	      0.01116812	     -0.18268181	     -0.00022679	     -0.00864883	      0.00284370	     -0.00036258	      0.00030483	      0.00012193	      0.00060966	      0.00039018	      0.00117055	      0.00065844	     -0.00001128	     -0.00022632	     -0.00027158	      0.00245366	      0.00860859	      0.00598859	     -0.00802637	      0.01937973	     -0.01838164	      0.00245366	      0.00860859	      0.00598859	      0.00054064	      0.01796576	     -0.00944034	      0.00389805	      0.00478713	      0.01584439	      0.00000000	      0.00749229	      0.00000000	     -0.00702827	     -0.03247977	     -0.00617608	      0.01999983	     -0.00084799	     -0.00882284	     -0.00087334	      0.01463877	     -0.00598859	      0.00241207	      0.02112641	     -0.01746671	     -0.00586383	      0.01268416	     -0.00536478	     -0.01222670	      0.02678229	     -0.02998452	     -0.02295625	      0.01418131	     -0.00719462	     -0.01522099	      0.03094103	     -0.03747026
      0.93333333	     -0.31677950	      0.13417284	     -0.13417284	      0.31677950	     -0.06414140	      0.51836827	      0.23300297	     -0.23300297	     -0.51836827	      0.06414140	    100.34066356	     75.00036187	     -1.75127495	    -31.91006139	     30.46758778	     71.73122606	      0.30232723	     -0.70234572	      0.33548832	     -0.35117286	     31.84353279	    -12.23350325	    -20.28625771	     -2.42394927	     70.84288889	     13.38076115	     73.70628887	     64.63972849	     74.98342921	      5.08579341	     78.32086536	     50.55028331	     75.85148590	    -12.33942462	     83.48083587	     40.73876134	     74.50955553	    -13.97380946	     91.57535233	      5.42036740	      0.00090777	     -0.03109205	     -0.00486248	      0.01548198	     -0.01847667	     -0.00337682	      0.00224987	     -0.06832715	     -0.00582834	      0.01113027	     -0.18269203	     -0.00023255	     -0.00860773	      0.00282641	     -0.00035422	      0.00030551	      0.00012220	      0.00061102	      0.00039105	      0.00117315	      0.00065990	     -0.00001072	     -0.00023275	     -0.00027930	      0.00245835	      0.00862505	      0.00600003	     -0.00804171	      0.01941678	     -0.01841677	      0.00245835	      0.00862505	      0.00600003	      0.00054167	      0.01800010	     -0.00945839	      0.00390353	      0.00479628	      0.01585805	      0.00000000	      0.00752115	      0.00000000	     -0.00704171	     -0.03254185	     -0.00620005	      0.01970057	     -0.00082279	     -0.00845043	     -0.00087500	      0.01466675	     -0.00600003	      0.00241668	      0.02116679	     -0.01750010	     -0.00587503	      0.01270841	     -0.00537503	     -0.01225007	      0.02683349	     -0.03004184	     -0.02300013	      0.01420841	     -0.00720837	     -0.01525009	      0.03100018	     -0.03754188
